With: Russell Crowe, Cate Blanchett and Mark Strong

Het legendarische verhaal over de ervaren boogschutter Robin Hood, die in dienst treedt bij het leger van koning Richard om tegen de Fransen te vechten. Na de dood van de koning vertrekt Robin naar Nottingham, een stad die lijdt onder de corruptie van een tirannieke schout en torenhoge belastingen. Daar valt hij voor de weduwe Lady Marian, die de identiteit en de motieven van deze kruisridder niet volledig vertrouwt. In de hoop de hand van Lady Marian te winnen en de stedelingen te redden, brengt Robin een bende bij elkaar die uitblinkt in dodelijke vechttrucs en levenslust. Samen vallen ze de rijke bovenklasse aan om het onrecht te herstellen...

In 13th century England, Robin and his band of marauders confront corruption in a local village and lead an uprising against the crown that will forever alter the balance of world power. 

------------------------ Dutch Friends ------------------------
---------------------------------------------------------------
- Bezoek ook eens mijn vrienden op:  http://www.Film-Test.nl --
----- voor mijn Nederlandse Sync. ondertitels ---- en meer ----
------- http://www.Film-Test.nl ---- voor Films en meer -------
---------------------------------------------------------------

General:

Complete name                    : Robin Hood\Robin Hood.avi
Format                           : AVI
Format/Info                      : Audio Video Interleave
File size                        : 2.35 GiB
Duration                         : 2h 29mn
Overall bit rate                 : 2 250 Kbps

Video:

Format                           : MPEG-4 Visual
Format profile                   : Simple@L3
Format settings, BVOP            : No
Format settings, QPel            : No
Format settings, GMC             : No warppoints
Format settings, Matrix          : Default (H.263)
Codec ID                         : XVID
Codec ID/Hint                    : XviD
Duration                         : 2h 29mn
Bit rate                         : 1 855 Kbps
Width                            : 720 pixels
Height                           : 304 pixels
Display aspect ratio             : 2.35:1
Frame rate                       : 25.000 fps
Color space                      : YUV
Chroma subsampling               : 4:2:0
Bit depth                        : 8 bits
Scan type                        : Progressive
Compression mode                 : Lossy
Bits/(Pixel*Frame)               : 0.339
Stream size                      : 1.94 GiB (82%)
Writing library                  : XviD 1.1.2 (UTC 2006-11-01)

Audio:

Format                           : AC-3
Format/Info                      : Audio Coding 3
Mode extension                   : CM (complete main)
Codec ID                         : 2000
Duration                         : 2h 29mn
Bit rate mode                    : Constant
Bit rate                         : 384 Kbps
Channel(s)                       : 6 channels
Channel positions                : Front: L C R, Side: L R, LFE
Sampling rate                    : 48.0 KHz
Bit depth                        : 16 bits
Compression mode                 : Lossy
Stream size                      : 410 MiB (17%)
Alignment                        : Aligned on interleaves
Interleave, duration             : 32 ms (0.80 video frame)
Interleave, preload duration     : 128 ms


